<svg xmlns="http://www.w3.org/2000/svg" xmlns:xlink="http://www.w3.org/1999/xlink" width="39" height="30" version="1.1" viewBox="0 0 39 30"><title>logo</title><desc>Created with Sketch.</desc><defs><linearGradient id="linearGradient-1" x1="100%" x2="60.638%" y1="80.867%" y2="47.35%"><stop offset="0%" stop-color="#4736FF"/><stop offset="100%" stop-color="#6900FF"/></linearGradient></defs><g id="Logo" fill="none" fill-rule="evenodd" stroke="none" stroke-width="1"><path id="logo" fill="url(#linearGradient-1)" fill-rule="nonzero" d="M23.1818182,30 C14.8975469,30 8.18181818,23.2842712 8.18181818,15 C8.18181818,6.71572875 14.8975469,0 23.1818182,0 C31.4660894,0 38.1818182,6.71572875 38.1818182,15 C38.1818182,23.2842712 31.4660894,30 23.1818182,30 Z M23.1818182,22.7272727 C27.4494731,22.7272727 30.9090909,19.2676549 30.9090909,15 C30.9090909,10.7323451 27.4494731,7.27272727 23.1818182,7.27272727 C18.9141633,7.27272727 15.4545455,10.7323451 15.4545455,15 C15.4545455,19.2676549 18.9141633,22.7272727 23.1818182,22.7272727 Z M3.63636364,7.27272727 C1.62805546,7.27272727 0,5.64467182 0,3.63636364 C0,1.62805546 1.62805546,0 3.63636364,0 C5.64467182,0 7.27272727,1.62805546 7.27272727,3.63636364 C7.27272727,5.64467182 5.64467182,7.27272727 3.63636364,7.27272727 Z"/></g></svg>