<svg xmlns="http://www.w3.org/2000/svg" viewBox="0 0 1079.3 1078.41"><defs><style>.cls-1{fill:#07a4fe;}.cls-2{fill:#fafdfe;}.cls-3{fill:#f8fcfe;}.cls-4{fill:#08a4fe;}.cls-5{fill:#09a4fe;}.cls-6{fill:#0aa5fe;}</style></defs><g id="Layer_2" data-name="Layer 2"><g id="Layer_1-2" data-name="Layer 1"><g id="Layer_2-2" data-name="Layer 2"><path class="cls-1" d="M0,552V508a92.35,92.35,0,0,0,1.61-9.28,521.7,521.7,0,0,1,24.76-126q48-146.2,165.48-245.61c80.82-68.25,174-109.22,278.92-122.67A539.05,539.05,0,0,1,627,7.12c42.58,7,83.88,18.41,123.37,35.72q201,88.16,287.54,290.08c24.24,56.74,37,116.32,40.55,177.74a526.27,526.27,0,0,1-6.72,117.41c-10,59.8-29.08,116.52-58.46,169.5Q921.16,963.71,746,1038c-46.74,19.73-95.51,31.87-145.93,37.64-30,3.45-60.16,2.93-90.28,2.54l-15.25-1-2.66-.17-17.32-1.81-1.68-.13a42.39,42.39,0,0,0-6.59-1.87,489.09,489.09,0,0,1-83.25-18,533,533,0,0,1-157.19-77.62c-2.93-2.1-6.13-3.83-9.2-5.74-.57-.45-1.14-.9-1.7-1.36l-7.32-5.59a4.09,4.09,0,0,0-.64-.45l-9.35-7.55c-.2-.16-.41-.31-.63-.46l-11.33-9.58L184,945.36l-8.38-7.52L174,936.39c-6.76-6.94-13.47-13.93-20.29-20.81-3.45-3.48-7.1-6.76-10.67-10.13l-1.48-1.61-7.53-8.37c-.48-.54-1-1.09-1.43-1.64-5.27-6.77-10.48-13.58-15.83-20.28-2.77-3.46-5.79-6.71-8.7-10.06a7.31,7.31,0,0,0-.52-.59L93.1,842.53a6.86,6.86,0,0,0-.46-.64l-3.54-5.35a6.86,6.86,0,0,0-.46-.64,54,54,0,0,0-2.83-5.7A535.2,535.2,0,0,1,24.37,697.6a510.23,510.23,0,0,1-20-96.51C2.7,584.74,1.46,568.34,0,552Zm311.11-12q0,120.14-.05,240.27c0,4-.15,7.43,5.53,6.81,1.12-.12,2.47,1.39,3.63,2.26,4.74,3.6,9,8,14.22,10.76q85.29,45.4,170.85,90.28c23.08,12,46.93,12,70,0Q661,845.62,746.17,800.07c5.19-2.75,9.49-7.16,14.23-10.75,1.16-.88,2.52-2.36,3.65-2.24,5.74.61,5.48-2.92,5.48-6.88q-.07-240.76,0-481.54c0-1.17.37-2.54-.11-3.45a8.1,8.1,0,0,0-3-3c-2.29-1.36-4.94-2.16-7.13-3.65-4.52-3.06-8.51-7-13.29-9.57q-85.1-45.21-170.43-90c-23.27-12.16-47.21-12.16-70.48,0q-85.62,44.76-170.86,90.26c-4.9,2.61-9,6.73-13.5,10.12-1.28,1-2.75,2.68-4,2.57-5.54-.52-5.64,2.63-5.64,6.78Q311.17,419.34,311.11,540ZM238.19,772.77c.75,20.81,5.68,40.16,19.93,56.15,10.7,12,24.59,19.72,38.15,27.79.82.49,3.64-.87,4.41-2.08,6-9.41,11.58-19,17.46-28.5,1.73-2.78,1.2-4.25-1.55-5.94-7.36-4.54-14.65-9.19-21.72-14.16-6.62-4.65-11.21-11-12.58-19.09-1.22-7.19-2.09-14.46-2.61-21.73-.26-3.61-1.34-5-5-4.89-8.31.21-16.63-.05-24.95.1C236.56,760.67,237.69,757.59,238.19,772.77ZM818.8,311.07c5.33,0,10.66-.15,16,.05,3.64.15,5.26-1.11,4.92-4.87-.49-5.47-.65-11-1.18-16.43-2.36-24.23-12.1-44.51-32.32-58.86C798.34,225.38,790,220.5,782,215.14c-2.77-1.85-4-.78-5.42,1.66-5.58,9.46-11.2,18.9-17.11,28.15-2.12,3.32-1.24,4.83,1.75,6.68,7.21,4.45,14.39,9,21.32,13.88,6.45,4.56,11,10.75,12.45,18.65a185.27,185.27,0,0,1,2.73,21.74c.24,4.19,1.58,5.49,5.64,5.24C808.47,310.83,813.64,311.07,818.8,311.07Z"/><path class="cls-2" d="M311.11,540q0-120.64-.06-241.27c0-4.15.1-7.3,5.64-6.78,1.24.11,2.71-1.6,4-2.57,4.5-3.39,8.6-7.51,13.5-10.12Q419.49,233.88,505,189c23.27-12.16,47.21-12.16,70.48,0Q660.93,233.61,746,279c4.78,2.54,8.77,6.51,13.29,9.57,2.19,1.49,4.84,2.29,7.13,3.65a8.1,8.1,0,0,1,3,3c.48.91.11,2.28.11,3.45q0,240.76,0,481.54c0,4,.26,7.49-5.48,6.88-1.13-.12-2.49,1.36-3.65,2.24-4.74,3.59-9,8-14.23,10.75q-85.27,45.4-170.85,90.28c-23.1,12.06-47,12-70,0q-85.65-44.7-170.85-90.28c-5.18-2.75-9.48-7.16-14.22-10.76-1.16-.87-2.51-2.38-3.63-2.26-5.68.62-5.53-2.78-5.53-6.81Q311.16,660.12,311.11,540Zm53.45,228.53c2.41,1.46,3.61,2.28,4.89,3q77.46,40.95,155,81.83c10.59,5.57,21.52,5.45,32.1-.13Q633.8,812.43,711,771.52c1.37-.72,2.61-1.68,4.61-3-2.23-1.32-3.59-2.2-5-3q-76.36-40.35-152.73-80.72c-11.86-6.29-23.36-6.24-35.22,0q-65.92,35-132,69.72C382.31,759,374,763.5,364.56,768.51ZM715.71,310.6c-2.12-1.33-3.42-2.25-4.82-3q-77-40.69-154-81.33c-10.93-5.76-22-5.87-33-.1Q446.45,267,369,308c-1.21.65-2.31,1.52-4,2.64,1.77,1.14,2.81,1.92,3.95,2.52q77.43,40.94,154.87,81.82c11,5.78,22,5.74,33,0q76.78-40.54,153.53-81.15C711.93,312.93,713.41,312,715.71,310.6ZM365.63,533.68c0,.53,0,1.06,0,1.59l153.44,81V452.62Zm349.15,1.66.1-1.7L561.66,452.71V616.23ZM494.7,652.47l.3-1.64L353.62,576.14V727Zm232.67-76.53L584.23,651.58l143.14,75.59ZM486.65,422.52,353.56,352.2V492.84ZM727.27,352.1,594,422.53l133.29,70.4Z"/><path class="cls-3" d="M238.19,772.77c-.5-15.18-1.63-12.1,11.5-12.35,8.32-.15,16.64.11,24.95-.1,3.7-.1,4.78,1.28,5,4.89.52,7.27,1.39,14.54,2.61,21.73,1.37,8.1,6,14.44,12.58,19.09,7.07,5,14.36,9.62,21.72,14.16,2.75,1.69,3.28,3.16,1.55,5.94-5.88,9.47-11.5,19.09-17.46,28.5-.77,1.21-3.59,2.57-4.41,2.08-13.56-8.07-27.45-15.79-38.15-27.79C243.87,812.93,238.94,793.58,238.19,772.77Z"/><path class="cls-3" d="M818.8,311.07c-5.16,0-10.33-.24-15.48.07-4.06.25-5.4-1.05-5.64-5.24A185.27,185.27,0,0,0,795,284.16c-1.42-7.9-6-14.09-12.45-18.65-6.93-4.89-14.11-9.43-21.32-13.88-3-1.85-3.87-3.36-1.75-6.68,5.91-9.25,11.53-18.69,17.11-28.15,1.45-2.44,2.65-3.51,5.42-1.66,8,5.36,16.38,10.24,24.24,15.82,20.22,14.35,30,34.63,32.32,58.86.53,5.46.69,11,1.18,16.43.34,3.76-1.28,5-4.92,4.87C829.46,310.92,824.13,311.07,818.8,311.07Z"/><path class="cls-4" d="M364.56,768.51c9.42-5,17.75-9.47,26.1-13.88q66-34.85,132-69.72c11.86-6.29,23.36-6.34,35.22,0q76.32,40.47,152.73,80.72c1.43.76,2.79,1.64,5,3-2,1.3-3.24,2.26-4.61,3q-77.24,40.86-154.5,81.65c-10.58,5.58-21.51,5.7-32.1.13q-77.53-40.8-155-81.83C368.17,770.79,367,770,364.56,768.51Z"/><path class="cls-4" d="M715.71,310.6c-2.3,1.36-3.78,2.33-5.34,3.15q-76.75,40.59-153.53,81.15c-11,5.78-22,5.82-33,0Q446.4,354.08,369,313.12c-1.14-.6-2.18-1.38-3.95-2.52,1.67-1.12,2.77-2,4-2.64q77.44-40.92,154.9-81.78c11-5.77,22-5.66,33,.1q77,40.62,154,81.33C712.29,308.35,713.59,309.27,715.71,310.6Z"/><path class="cls-5" d="M365.63,533.68l153.46-81.06V616.31l-153.44-81C365.65,534.74,365.64,534.21,365.63,533.68Z"/><path class="cls-5" d="M714.78,535.34,561.66,616.23V452.71l153.22,80.93Z"/><path class="cls-6" d="M494.7,652.47,353.62,727V576.14L495,650.83Z"/><path class="cls-5" d="M727.37,575.94V727.17L584.23,651.58Z"/><path class="cls-6" d="M486.65,422.52,353.56,492.84V352.2Z"/><path class="cls-5" d="M727.27,352.1V492.93L594,422.53Z"/></g></g></g></svg>