<svg xmlns="http://www.w3.org/2000/svg" viewBox="0 0 562.83 562.15"><defs><style>.cls-1{fill:#c0db64;}</style></defs><g id="Layer_2" data-name="Layer 2"><g id="Layer_1-2" data-name="Layer 1"><path class="cls-1" d="M253.25,560.84c-4.57-.55-9.14-1.07-13.7-1.65-3.09-.4-6.2-.69-9.23-1.33q-9.66-2.05-19.26-4.46a274.85,274.85,0,0,1-63.63-24.9,279.29,279.29,0,0,1-45.05-30.36A281.65,281.65,0,0,1,13.65,368,267.3,267.3,0,0,1,4.24,330.2c-.86-5-1.59-10-2.32-15A158.86,158.86,0,0,1,.34,295.67C.17,287.53,0,279.38,0,271.24c0-4.46.58-8.92.79-13.38a216.21,216.21,0,0,1,2.93-23.93A262.53,262.53,0,0,1,11.9,199,274.28,274.28,0,0,1,30,154,284.28,284.28,0,0,1,87.23,77.32a285.9,285.9,0,0,1,53-39.69,280.38,280.38,0,0,1,56-24.75A253.29,253.29,0,0,1,235.72,3.5c5-.75,10.1-1.27,15.15-1.9L255.59,1l2.49-.33,3.29-.16L264.8.19,270,0l1.42.14h20.22L293.11,0l5.24.18,3.41.32,3.31.17,2.48.33c4.09.52,8.17,1.12,12.27,1.53a197.34,197.34,0,0,1,19.94,3.3A267.28,267.28,0,0,1,381.7,18.13a280.12,280.12,0,0,1,59.22,31.19,286.72,286.72,0,0,1,31.76,25.46,281.08,281.08,0,0,1,47.28,57,279.89,279.89,0,0,1,37.8,95.66c.93,4.82,1.4,9.74,2.12,14.61.27,1.8.76,3.58.93,5.39.39,4,.48,8.12,1,12.15,1.39,10.73,1,21.51.8,32.27-.13,6.21-.76,12.42-1.38,18.61-.43,4.25-1.29,8.46-1.83,12.71-2.72,21.59-8.76,42.28-16.78,62.44a275.36,275.36,0,0,1-27.24,51.6A286.28,286.28,0,0,1,487.92,472a280.93,280.93,0,0,1-65.2,52.28,276.37,276.37,0,0,1-79.27,31.13c-7.21,1.62-14.51,2.84-21.81,4-5.8.88-11.67,1.33-17.5,2l-3.43.35-3.77.13-5.35.35H271.07l-5.35-.35-3.77-.13-3.42-.35-2.81-.14Zm34.13-169.65.92-.14c1.43-.16,2.86-.26,4.28-.49a56.86,56.86,0,0,0,20.69-7.16q19.35-11.77,38.67-23.6Q382,341.43,412,323l58.9-36a28.18,28.18,0,0,0,8.77-8,15.3,15.3,0,0,0-.29-18.5,26.17,26.17,0,0,0-9-7.42c-6.73-3.67-13.52-7.24-20.29-10.85l-8-4.25-1.33.79q-21.26,13-42.52,26c-23.72,14.5-47.5,28.91-71.15,43.52a84.76,84.76,0,0,1-36.9,12.24l-2.48.28-13.74,0-3-.33a76.93,76.93,0,0,1-11.48-2,70.91,70.91,0,0,1-13.76-4.84c-4.71-2.37-9.37-4.83-14-7.31q-33.56-17.82-67.09-35.69L130.4,252.49c-3-1.61-6.07-3.2-9.14-4.81-.54.28-1.05.5-1.52.79l-28.41,17.4a29.6,29.6,0,0,0-7.23,6.24c-2.79,3.31-4.77,7.05-4.41,11.5a17.13,17.13,0,0,0,4.89,10.44,29.33,29.33,0,0,0,7.65,5.72q21.66,11.58,43.36,23.1c8.82,4.69,17.66,9.34,26.48,14l62.4,33.25c9.38,5,18.73,10.06,28.15,15a51,51,0,0,0,21.24,5.94l.48.12Zm-14.95,22.42a26.24,26.24,0,0,1-4.07-.09c-3-.53-6.06-1.22-9.08-1.9a72.93,72.93,0,0,1-17.68-6.57q-10.71-5.64-21.42-11.29Q192.59,379.3,165,364.87q-18.15-9.51-36.27-19.07a3.63,3.63,0,0,0-4.14.14c-8.16,5-16.42,9.89-24.59,14.89-4.29,2.62-8.55,5.3-12.67,8.18a18.57,18.57,0,0,0-6.37,8.24A13,13,0,0,0,81,388.52a22.18,22.18,0,0,0,9.7,10c10.68,5.77,21.45,11.37,32.2,17q19.31,10.15,38.63,20.26L221,466.93c9.41,4.93,18.86,9.77,28.2,14.83a61.12,61.12,0,0,0,26.64,7.66,10.78,10.78,0,0,0,2.28.39c2.29-.07,4.57-.25,6.85-.39,2.75-.33,5.52-.57,8.26-1a55.23,55.23,0,0,0,19.75-7q15.3-9.24,30.59-18.44,29-17.42,57.92-34.84,32.34-19.49,64.67-39c3.9-2.36,7.79-4.71,10.91-8.14,6.25-6.89,6.22-15.53-.36-22.07a29.57,29.57,0,0,0-6.62-5.07c-10.88-5.9-21.89-11.58-32.82-17.41a3.09,3.09,0,0,0-3.5.3Q415.3,348,396.81,359.07q-34.59,20.87-69.17,41.73a83.1,83.1,0,0,1-22.94,10.06c-2.31.57-4.73.75-7,1.43-2.94.89-6,.92-8.94,1.29l-3.38.3-10.52,0Zm6.72-341.17c-3.72.37-7.49.55-11.17,1.17a52.26,52.26,0,0,0-18.44,6.47Q219.72,97.92,190,115.87l-57.31,34.45c-13.83,8.31-27.69,16.57-41.5,24.93-4.37,2.65-8.08,6-10.11,10.88-1,2.44-1.84,5-1.21,7.67A18.34,18.34,0,0,0,84,202.08a28.8,28.8,0,0,0,8.32,6.36q23.55,12.38,47.13,24.71,20.49,10.72,41,21.42,28.47,14.88,56.94,29.73c6.16,3.21,12.26,6.56,18.57,9.47A42.27,42.27,0,0,0,272.42,298l.54.15a6,6,0,0,0,.94.17c7.9.36,15.75.28,23.52-1.62a56.49,56.49,0,0,0,15.8-6.08q26-15.57,52-31.22,51.66-31,103.33-62a40.53,40.53,0,0,0,9.66-7.41c4.75-5.29,5.83-11.7,2.9-17.48a21.69,21.69,0,0,0-9-9c-4.37-2.48-8.86-4.77-13.31-7.11q-20.06-10.51-40.13-21l-65-34Q333.75,91,313.89,80.68a104.72,104.72,0,0,0-10.2-4.74,57,57,0,0,0-19.7-3.5Z"/></g></g></svg>