<svg xmlns="http://www.w3.org/2000/svg" xmlns:xlink="http://www.w3.org/1999/xlink" viewBox="0 0 741 741"><defs><style>.cls-1{fill:url(#linear-gradient);}.cls-2{fill:#fff;}.cls-3{fill:url(#linear-gradient-2);}.cls-4{fill:url(#linear-gradient-3);}.cls-5{fill:url(#linear-gradient-4);}</style><linearGradient id="linear-gradient" x1="120.07" y1="3585.75" x2="-507.09" y2="3223.67" gradientTransform="matrix(1, 0, 0, -1, 564, 3775.19)" gradientUnits="userSpaceOnUse"><stop offset="0" stop-color="#fff"/><stop offset="1" stop-color="#999"/></linearGradient><linearGradient id="linear-gradient-2" x1="-252.92" y1="-236.34" x2="-327.8" y2="-328.81" gradientTransform="translate(564 842.01)" gradientUnits="userSpaceOnUse"><stop offset="0" stop-color="#dd3c3c"/><stop offset="0.82" stop-color="#b11b17"/><stop offset="1" stop-color="#b11b17"/></linearGradient><linearGradient id="linear-gradient-3" x1="45.33" y1="-512.15" x2="-376.75" y2="-534.27" xlink:href="#linear-gradient-2"/><linearGradient id="linear-gradient-4" x1="-367.82" y1="-407.21" x2="-19.11" y2="-403.92" xlink:href="#linear-gradient-2"/></defs><g id="Layer_2" data-name="Layer 2"><g id="Layer_1-2" data-name="Layer 1"><g id="Layer_2-2" data-name="Layer 2"><g id="Layer_1-2-2" data-name="Layer 1-2"><g id="Layer_2-2-2" data-name="Layer 2-2"><g id="Layer_1-2-2-2" data-name="Layer 1-2-2"><g id="Layer_2-2-2-2" data-name="Layer 2-2-2"><g id="Layer_1-2-2-2-2" data-name="Layer 1-2-2-2"><path class="cls-1" d="M370.5,732.5c-200-.13-362-162.36-361.86-362.34a362.13,362.13,0,0,1,221-333.22c184.47-77.23,396.62,9.71,473.84,194.18,76.88,183.63-8.9,394.89-192,472.94A359.89,359.89,0,0,1,370.5,732.5Z"/><path class="cls-2" d="M370.5,17c195.29.13,353.5,158.56,353.36,353.84A353.61,353.61,0,0,1,508.09,696.23c-180.19,75.28-387.3-9.77-462.58-190C-29.36,327.08,54.31,121,232.91,44.77A351.17,351.17,0,0,1,370.5,17m0-17C165.88,0,0,165.88,0,370.5S165.88,741,370.5,741,741,575.12,741,370.5,575.12,0,370.5,0Z"/><g id="Layer_2-2-2-2-2" data-name="Layer 2-2-2-2"><path class="cls-3" d="M195.63,593.38H326.25V494.13H294.88A99.27,99.27,0,0,0,195.63,593.38Z"/><path class="cls-4" d="M609.55,320A173.2,173.2,0,0,1,441.41,494.13a107.85,107.85,0,0,0-3.92-215.63H326.25A130.63,130.63,0,0,1,195.63,147.87H434.48C530.05,147.87,609,224.48,609.55,320Z"/><path class="cls-5" d="M437.49,278.5a42.63,42.63,0,0,1,41.45,41.81c.4,23.81-19.59,43.28-43.4,43.28H326.25A130.62,130.62,0,0,0,195.63,494.21h0v99.17a99.23,99.23,0,0,1,96.18-99.17s149,0,149.6-.08a107.85,107.85,0,0,0-3.92-215.63Z"/></g></g></g></g></g></g></g></g></g></svg>