<?xml version="1.0" encoding="UTF-8"?><svg xmlns="http://www.w3.org/2000/svg" xmlns:xlink="http://www.w3.org/1999/xlink" viewBox="0 0 742.3 744.4"><defs><style>.ad{fill:url(#p);}.ae{fill:url(#o);}.af{fill:url(#j);}.ag{fill:url(#n);}.ah{fill:url(#y);}.ai{fill:url(#aa);}.aj{fill:url(#ab);}.ak{fill:url(#ac);}.al{fill:#fff;}</style><linearGradient id="j" x1="-165.62" y1="1839.76" x2="-792.78" y2="1477.68" gradientTransform="translate(851 2032.65) scale(1 -1)" gradientUnits="userSpaceOnUse"><stop offset="0" stop-color="#fff"/><stop offset="1" stop-color="#989898"/></linearGradient><linearGradient id="n" x1="-251.09" y1="924.41" x2="-318.54" y2="1005.97" gradientTransform="translate(564 1540.2) scale(1 -1)" gradientUnits="userSpaceOnUse"><stop offset="0" stop-color="#00cbfd"/><stop offset="1" stop-color="#006acf"/></linearGradient><linearGradient id="o" x1="74.83" y1="1199.78" x2="-352.93" y2="1221.9" gradientTransform="translate(564 1540.2) scale(1 -1)" gradientUnits="userSpaceOnUse"><stop offset="0" stop-color="#00c5ff"/><stop offset="1" stop-color="#006acf"/></linearGradient><linearGradient id="p" x1="-376.81" y1="1096.38" x2="-6.24" y2="1092.86" gradientTransform="translate(564 1540.2) scale(1 -1)" gradientUnits="userSpaceOnUse"><stop offset="0" stop-color="#0086dd"/><stop offset="1" stop-color="#00cbfd"/></linearGradient><linearGradient id="y" x1="120.08" y1="-2405.84" x2="-507.08" y2="-2043.76" gradientTransform="translate(564 2595.3)" xlink:href="#j"/><linearGradient id="aa" x1="-252.98" y1="1542.62" x2="-327.85" y2="1635.08" gradientTransform="translate(564 2148.21) scale(1 -1)" gradientUnits="userSpaceOnUse"><stop offset="0" stop-color="#ffc700"/><stop offset=".19" stop-color="#fac300"/><stop offset=".39" stop-color="#ecb800"/><stop offset=".61" stop-color="#d6a700"/><stop offset=".84" stop-color="#b78e00"/><stop offset="1" stop-color="#9c7900"/></linearGradient><linearGradient id="ab" x1="45.28" y1="1818.4" x2="-376.68" y2="1840.52" xlink:href="#aa"/><linearGradient id="ac" x1="-367.75" y1="1713.4" x2="-19.02" y2="1710.11" xlink:href="#aa"/></defs><g id="a"/><g id="b"><g id="c"><g><g id="d"><g id="e"><g id="f"><g id="g"><g id="h"><g id="i"><path class="af" d="M371.8,735.9c-200-.1-362-162.4-361.9-362.3,.1-145.4,87.1-276.6,221-333.2,184.5-77.2,396.6,9.7,473.8,194.2,76.9,183.6-8.9,394.9-192,473-44.5,18.7-92.5,28.4-140.9,28.3Z"/><path class="al" d="M371.8,20.4c195.3,.1,353.5,158.5,353.4,353.8-.1,141.9-85.1,270.1-215.8,325.4-180.2,75.3-387.3-9.8-462.6-190C-28.1,330.4,55.6,124.4,234.2,48.1c43.5-18.4,90.3-27.8,137.6-27.7m0-17C167.2,3.4,1.3,169.3,1.3,373.9s165.9,370.5,370.5,370.5,370.5-165.9,370.5-370.5S576.4,3.4,371.8,3.4Z"/></g></g></g></g><g id="k"><g id="l"><g id="m"><path class="ag" d="M195.6,602.5h130.6v-99.2h-31.4c-54.8-.1-99.2,44.4-99.2,99.2Z"/><path class="ae" d="M609.5,329.2c.5,94.1-74.1,171.3-168.1,174.1,59.5-2.1,106-52.1,103.9-111.7-2.1-58-49.7-104-107.8-104h-111.2c-72.1,0-130.6-58.5-130.6-130.6h238.8c95.5,0,174.5,76.6,175,172.2Z"/><path class="ad" d="M437.5,287.6c22.8,.6,41,19,41.4,41.8,.4,23.8-19.6,43.3-43.4,43.3h-109.3c-72.1,0-130.6,58.5-130.6,130.6h0v99.2c0-53.6,42.6-97.5,96.2-99.2,0,0,149,0,149.6-.1,59.5-2.1,106-52.1,103.9-111.7-2.1-57.9-49.8-103.9-107.8-103.9Z"/></g></g></g></g></g><g id="q"><g id="r"><g id="s"><g id="t"><g id="u"><g id="v"><g id="w"><g id="x"><path class="ah" d="M370.5,732.5c-200-.1-362-162.4-361.9-362.3,.1-145.4,87.1-276.6,221-333.2,184.5-77.2,396.6,9.7,473.8,194.2,76.9,183.6-8.9,394.9-192,472.9-44.5,18.8-92.5,28.5-140.9,28.4Z"/><path class="al" d="M370.5,17c195.3,.1,353.5,158.6,353.4,353.8-.1,141.9-85.1,270.1-215.8,325.4-180.2,75.3-387.3-9.8-462.6-190C-29.4,327.1,54.3,121,232.9,44.7c43.5-18.4,90.3-27.8,137.6-27.7m0-17C165.9,0,0,165.9,0,370.5s165.9,370.5,370.5,370.5,370.5-165.9,370.5-370.5S575.1,0,370.5,0Z"/><g id="a`"><path class="ai" d="M195.6,593.3h130.6v-99.2h-31.4c-54.8,0-99.2,44.4-99.2,99.2Z"/><path class="aj" d="M609.5,320c.5,94.1-74.1,171.4-168.1,174.1,59.5-2.1,106-52.1,103.9-111.7-2.1-58-49.7-104-107.8-104h-111.2c-72.1,0-130.6-58.5-130.6-130.6h238.8c95.5,0,174.5,76.6,175,172.2Z"/><path class="ak" d="M437.5,278.5c22.8,.6,41,19,41.5,41.8,.4,23.8-19.6,43.3-43.4,43.3h-109.3c-72.1,0-130.6,58.5-130.6,130.6h0v99.2c0-53.6,42.6-97.5,96.2-99.2,0,0,149,0,149.6-.1,59.5-2.1,106-52.1,103.9-111.7-2.2-58-49.9-104-107.9-103.9h0Z"/></g></g></g></g></g></g></g></g></g></g></g></g></svg>