<svg width="146" height="39" viewBox="0 0 146 39" fill="none" xmlns="http://www.w3.org/2000/svg">
<g clip-path="url(#clip0_1592_4888)">
<path fill-rule="evenodd" clip-rule="evenodd" d="M28.7151 19.1359C34.0069 19.1359 38.2868 14.8577 38.2868 9.56796C38.2868 4.27818 33.9858 0 28.7151 0C23.4443 0 19.1856 4.25711 19.1434 9.50474C19.1012 4.25711 14.8425 0 9.5717 0C4.27986 0 0 4.27818 0 9.56796C0 14.8367 4.25877 19.1148 9.52953 19.1359C4.25877 19.157 0 23.4352 0 28.7039C0 33.9937 4.27986 38.2718 9.5717 38.2718C14.8635 38.2718 19.1434 33.9937 19.1434 28.7039C19.1434 23.4352 14.8846 19.157 9.61386 19.1359C14.8635 19.1148 19.1012 14.8788 19.1434 9.63119C19.1645 14.8788 23.4443 19.1359 28.7151 19.1359Z" fill="#06E594"/>
<path d="M28.7152 38.2717C34.0015 38.2717 38.2869 33.9879 38.2869 28.7037C38.2869 23.4195 34.0015 19.1357 28.7152 19.1357C23.4289 19.1357 19.1436 23.4195 19.1436 28.7037C19.1436 33.9879 23.4289 38.2717 28.7152 38.2717Z" fill="#06E594"/>
<path d="M75.9831 4.32031H72.0405V28.9357H75.9831V4.32031Z" fill="#06E594"/>
<path fill-rule="evenodd" clip-rule="evenodd" d="M57.62 16.9015C58.5055 15.9743 59.5807 15.5106 60.8457 15.5106C62.0052 15.5106 62.8907 15.8267 63.5232 16.4379C64.1768 17.028 64.6195 17.7445 64.8514 18.6086L68.3934 17.323C68.0139 15.8267 67.1495 14.5412 65.8424 13.4874C64.5563 12.4126 62.8696 11.8857 60.8035 11.8857C58.4 11.8857 56.3761 12.7077 54.7527 14.3726C53.1504 16.0375 52.3281 18.1239 52.3281 20.6739C52.3281 23.1818 53.1504 25.2893 54.7738 26.9753C56.4393 28.6613 58.4633 29.4832 60.8878 29.4832C62.9118 29.4832 64.5563 28.9563 65.8634 27.8815C67.1706 26.8067 68.0561 25.5422 68.5199 24.067L65.0412 22.8025C64.8093 23.6033 64.3455 24.3199 63.6497 24.9521C62.9751 25.5633 62.0474 25.8794 60.8878 25.8794C59.6018 25.8794 58.4844 25.4158 57.5778 24.4885C56.6923 23.5612 56.2496 22.2967 56.2496 20.6739C56.2917 19.0512 56.7345 17.8078 57.62 16.9015Z" fill="#06E594"/>
<path fill-rule="evenodd" clip-rule="evenodd" d="M85.0701 24.5101C85.9766 25.4374 87.073 25.9011 88.3801 25.9011C89.6662 25.9011 90.7625 25.4374 91.648 24.5101C92.5546 23.5828 93.0184 22.2973 93.0184 20.6324C93.0184 19.0096 92.5546 17.724 91.648 16.8178C90.7625 15.8905 89.6662 15.4269 88.3801 15.4269C87.094 15.4269 85.9766 15.8905 85.0701 16.8178C84.1846 17.724 83.7418 18.9885 83.7418 20.6324C83.7418 22.2762 84.1846 23.5617 85.0701 24.5101ZM88.359 11.8652C90.8468 11.8652 92.913 12.6872 94.5153 14.3521C96.1598 16.017 96.982 18.1034 96.982 20.6534C96.982 23.2035 96.1597 25.311 94.5364 26.9759C92.934 28.6408 90.8679 29.4627 88.3801 29.4627C85.9134 29.4627 83.8473 28.6408 82.2239 26.9759C80.6216 25.2899 79.7993 23.1824 79.7993 20.6534C79.7993 18.1245 80.6005 16.017 82.2239 14.3521C83.8473 12.6872 85.8923 11.8652 88.359 11.8652Z" fill="#06E594"/>
<path fill-rule="evenodd" clip-rule="evenodd" d="M108.767 28.9359L115.261 12.3711H111.107L106.828 24.2151L102.421 12.3711H98.0781L104.804 28.9359H108.767Z" fill="#06E594"/>
<path fill-rule="evenodd" clip-rule="evenodd" d="M120.426 18.8406H128.564C128.522 17.8079 128.142 16.9228 127.447 16.2273C126.772 15.5318 125.781 15.1736 124.495 15.1736C123.314 15.1736 122.366 15.5529 121.628 16.2905C120.89 17.0071 120.489 17.8711 120.426 18.8406ZM128.986 23.1609L132.317 24.2147C131.832 25.732 130.946 26.9965 129.618 27.9871C128.332 28.9565 126.73 29.4412 124.811 29.4412C122.45 29.4412 120.447 28.6404 118.782 27.0176C117.158 25.4159 116.336 23.2452 116.336 20.5476C116.336 18.0187 117.137 15.9323 118.718 14.2884C120.321 12.6657 122.218 11.8438 124.39 11.8438C126.92 11.8438 128.923 12.6235 130.335 14.1831C131.769 15.7215 132.486 17.8079 132.486 20.4423C132.486 21.1377 132.443 21.5592 132.38 21.7068H120.278C120.321 22.9502 120.784 23.9828 121.649 24.8048C122.534 25.6267 123.589 26.0271 124.811 26.0271C126.983 26.0482 128.353 25.0787 128.986 23.1609Z" fill="#06E594"/>
<path fill-rule="evenodd" clip-rule="evenodd" d="M146 16.2912V12.287C145.663 12.2238 145.304 12.1816 144.946 12.1816C143.849 12.1816 142.88 12.4345 142.015 12.9614C141.151 13.4672 140.539 14.1416 140.139 15.0267V12.3713H136.302V28.9361H140.244V21.0541C140.244 17.8086 141.72 16.1859 144.693 16.1859C145.114 16.1859 145.557 16.228 146 16.2912Z" fill="#06E594"/>
</g>
<defs>
<clipPath id="clip0_1592_4888">
<rect width="146" height="38.2718" fill="white"/>
</clipPath>
</defs>
</svg>
